<?xml version="1.0" encoding="UTF-8"?>
<svg version="1.1" xmlns="http://www.w3.org/2000/svg" width="500" height="500">
<path d="M0 0 C2.15031964 -0.00321918 4.30063906 -0.00658374 6.45095825 -0.01008606 C10.94436144 -0.01605105 15.43774548 -0.01792862 19.93115234 -0.01733398 C25.65905215 -0.01723238 31.38682796 -0.03089493 37.11469841 -0.04810619 C41.55193637 -0.05927969 45.98914483 -0.06125157 50.42639542 -0.06072426 C52.53688103 -0.06189592 54.64736762 -0.06627138 56.7578392 -0.07405663 C67.71357881 -0.11069746 78.16329537 0.06124721 88.9453125 2.16796875 C90.59045759 2.40202505 92.23619389 2.63201436 93.8828125 2.85546875 C99.68700513 4.02012582 104.75939789 6.85993207 109.94140625 9.609375 C112.87805008 11.2323396 112.87805008 11.2323396 115.9453125 12.16796875 C115.9453125 12.82796875 115.9453125 13.48796875 115.9453125 14.16796875 C116.6053125 14.37421875 117.2653125 14.58046875 117.9453125 14.79296875 C122.01711436 16.65921127 125.63328248 19.14358402 128.9453125 22.16796875 C128.9453125 22.82796875 128.9453125 23.48796875 128.9453125 24.16796875 C129.6053125 24.16796875 130.2653125 24.16796875 130.9453125 24.16796875 C130.9453125 24.82796875 130.9453125 25.48796875 130.9453125 26.16796875 C131.6053125 26.16796875 132.2653125 26.16796875 132.9453125 26.16796875 C153.10030162 48.24646305 156.02621157 75.53615345 154.9453125 104.16796875 C153.79221945 119.14146687 147.38619115 132.96874267 138.9453125 145.16796875 C138.1733456 146.39642381 137.40228825 147.62545176 136.6328125 148.85546875 C136.0759375 149.61859375 135.5190625 150.38171875 134.9453125 151.16796875 C134.2853125 151.16796875 133.6253125 151.16796875 132.9453125 151.16796875 C132.6565625 151.76609375 132.3678125 152.36421875 132.0703125 152.98046875 C130.9453125 155.16796875 130.9453125 155.16796875 128.9453125 158.16796875 C128.2853125 158.16796875 127.6253125 158.16796875 126.9453125 158.16796875 C126.9453125 158.82796875 126.9453125 159.48796875 126.9453125 160.16796875 C124.9453125 161.79296875 124.9453125 161.79296875 122.9453125 163.16796875 C123.97816052 171.18427784 125.60229475 179.09918509 127.12890625 187.03320312 C130.7420795 206.17874541 130.7420795 206.17874541 128.9453125 212.16796875 C128.2853125 212.16796875 127.6253125 212.16796875 126.9453125 212.16796875 C126.6153125 213.15796875 126.2853125 214.14796875 125.9453125 215.16796875 C122.69402758 216.79361121 119.46448992 216.65253707 115.9453125 216.16796875 C112.76184905 214.97917091 109.88835058 213.35667717 106.9453125 211.66796875 C105.25864 210.73938078 103.5711268 209.81231832 101.8828125 208.88671875 C101.04878906 208.42394531 100.21476563 207.96117187 99.35546875 207.484375 C95.9321489 205.61458766 92.4469459 203.88518864 88.9453125 202.16796875 C82.83925071 199.14568221 76.78852047 196.02539712 70.7578125 192.85546875 C69.95537109 192.43458984 69.15292969 192.01371094 68.32617188 191.58007812 C65.20960253 189.93573695 62.14346068 188.29039503 59.14453125 186.4375 C54.66712507 183.85285167 50.18128813 184.00726662 45.11914062 183.97851562 C44.33494247 183.97022232 43.55074432 183.96192902 42.74278259 183.9533844 C41.04313652 183.93601363 39.34346691 183.92083875 37.64378357 183.90760803 C34.95390659 183.88654131 32.26414769 183.85952206 29.57434082 183.83093262 C23.86471023 183.77130435 18.15502463 183.71910551 12.4453125 183.66796875 C5.82875623 183.60871021 -0.78774136 183.54641446 -7.40419006 183.47608948 C-10.05423081 183.44953645 -12.70427759 183.42870997 -15.35437012 183.40808105 C-16.97908819 183.39147607 -18.60380356 183.37460405 -20.22851562 183.35742188 C-20.96526016 183.35323746 -21.7020047 183.34905304 -22.46107483 183.34474182 C-25.79507337 183.3039093 -28.86573364 183.1983175 -32.0546875 182.16796875 C-31.89613281 183.0290625 -31.73757812 183.89015625 -31.57421875 184.77734375 C-29.89522248 195.73500359 -30.84824055 204.85829832 -37.0546875 214.16796875 C-37.7146875 214.16796875 -38.3746875 214.16796875 -39.0546875 214.16796875 C-39.30992187 214.78285156 -39.56515625 215.39773438 -39.828125 216.03125 C-41.22829587 218.47040117 -42.18263024 219.13678543 -44.6796875 220.35546875 C-45.31132812 220.67902344 -45.94296875 221.00257813 -46.59375 221.3359375 C-51.73342078 223.07363572 -56.93097741 223.21329698 -62.3046875 223.203125 C-75.72206213 223.21125393 -84.61353929 225.29484654 -96.0546875 232.16796875 C-99.92861019 233.95677724 -101.91339841 234.43336264 -106.0546875 233.16796875 C-106.3846875 232.83796875 -106.7146875 232.50796875 -107.0546875 232.16796875 C-106.83041097 228.62989202 -106.46783356 225.11318471 -106.11328125 221.5859375 C-106.05694076 218.2994087 -106.27436185 216.85538048 -108.0546875 214.16796875 C-108.7146875 214.16796875 -109.3746875 214.16796875 -110.0546875 214.16796875 C-116.07475549 204.53585996 -117.0314629 195.46044528 -116.0546875 184.16796875 C-114.43214304 177.71124545 -111.72510506 171.65367727 -106.08203125 167.83203125 C-98.19778511 163.15287316 -90.57172432 161.89542622 -81.5546875 161.54296875 C-80.73226562 161.50429687 -79.90984375 161.465625 -79.0625 161.42578125 C-77.0602174 161.33265183 -75.05748488 161.2492789 -73.0546875 161.16796875 C-73.59996094 160.59691406 -74.14523438 160.02585938 -74.70703125 159.4375 C-95.28171047 137.31532354 -103.86056334 113.41094006 -103.36328125 83.44140625 C-102.67881112 64.62273779 -96.26474159 45.62251808 -84.0546875 31.16796875 C-82.848125 29.73710938 -82.848125 29.73710938 -81.6171875 28.27734375 C-77.25711404 23.27443895 -77.25711404 23.27443895 -75.0546875 21.16796875 C-74.3946875 21.16796875 -73.7346875 21.16796875 -73.0546875 21.16796875 C-73.0546875 20.50796875 -73.0546875 19.84796875 -73.0546875 19.16796875 C-71.08605677 17.61347071 -69.12864642 16.19392113 -67.0546875 14.79296875 C-66.50167969 14.40625 -65.94867188 14.01953125 -65.37890625 13.62109375 C-58.2366163 8.72821466 -51.1255018 5.60880405 -42.7421875 3.48046875 C-41.96423828 3.26841797 -41.18628906 3.05636719 -40.38476562 2.83789062 C-27.17366946 -0.59764464 -13.5432897 0.00478 0 0 Z M-67.0546875 166.16796875 C-67.0546875 167.15796875 -67.0546875 168.14796875 -67.0546875 169.16796875 C-67.86623291 169.17731445 -68.67777832 169.18666016 -69.51391602 169.19628906 C-73.21560797 169.25020105 -76.9160647 169.33381074 -80.6171875 169.41796875 C-82.53241211 169.43923828 -82.53241211 169.43923828 -84.48632812 169.4609375 C-92.58825429 169.67137714 -97.74833739 170.13197246 -103.796875 175.80078125 C-108.03223053 181.37976681 -108.28986522 184.46798917 -108.3671875 191.29296875 C-108.39619141 192.123125 -108.42519531 192.95328125 -108.45507812 193.80859375 C-108.51494902 199.68515281 -107.54714627 204.33525456 -104.0546875 209.16796875 C-102.99807102 209.99495656 -101.9136775 210.78766193 -100.8046875 211.54296875 C-98.0546875 214.16796875 -98.0546875 214.16796875 -97.671875 216.6953125 C-97.67893698 219.21290741 -97.79223241 221.66492487 -98.0546875 224.16796875 C-93.41072288 222.84112172 -90.02922998 220.87404023 -86.0546875 218.16796875 C-82.09138004 216.2333301 -78.89387085 215.92813331 -74.50390625 215.9296875 C-73.24771484 215.91357422 -71.99152344 215.89746094 -70.69726562 215.88085938 C-68.07231455 215.86400784 -65.44726265 215.85869477 -62.82226562 215.86523438 C-55.3845046 215.74729545 -49.6668239 215.41049365 -44.0546875 210.16796875 C-40.45956584 205.55883841 -38.92185622 202.08513004 -38.95703125 196.28125 C-38.96025391 195.34345703 -38.96347656 194.40566406 -38.96679688 193.43945312 C-38.97517578 192.46298828 -38.98355469 191.48652344 -38.9921875 190.48046875 C-38.99669922 189.49240234 -39.00121094 188.50433594 -39.00585938 187.48632812 C-39.01764447 185.04681401 -39.03409739 182.60742186 -39.0546875 180.16796875 C-39.75577637 179.85585449 -40.45686523 179.54374023 -41.17919922 179.22216797 C-60.24606949 170.70704742 -60.24606949 170.70704742 -67.0546875 166.16796875 Z " fill="#3F3278" transform="translate(220.0546875,93.83203125)"/>
<path d="M0 0 C1.28982033 -0.01210762 1.28982033 -0.01210762 2.60569763 -0.02445984 C4.42892447 -0.0382924 6.25217711 -0.04901826 8.07543945 -0.05688477 C9.92675443 -0.06836353 11.7780374 -0.08874976 13.62915039 -0.1184082 C27.02137033 -0.3329234 37.49134228 -0.16374127 47.6875 9.51953125 C54.19721081 16.42139331 54.73310922 24.91367042 54.5546875 33.9921875 C53.96134481 41.81866015 51.71101758 47.48917876 46.61328125 53.44921875 C43.89815654 57.17235384 44.28218542 60.42470192 44.80859375 64.86328125 C45.41705362 70.02136151 45.41705362 70.02136151 44.30859375 72.23828125 C37.91698522 72.82931506 34.1096749 71.0051205 28.62109375 67.86328125 C27.13804467 67.04292566 25.65497251 66.22261178 24.171875 65.40234375 C23.52516846 65.0357666 22.87846191 64.66918945 22.2121582 64.29150391 C21.58398193 63.94394043 20.95580566 63.59637695 20.30859375 63.23828125 C19.7050708 62.86856201 19.10154785 62.49884277 18.47973633 62.11791992 C15.49281403 60.907768 12.92427887 60.99889442 9.70703125 61 C7.76376953 60.97583008 7.76376953 60.97583008 5.78125 60.95117188 C3.740821 60.93483088 1.70113258 60.92571987 -0.33935547 60.93286133 C-8.94498329 60.9443914 -16.65012215 60.69337122 -23.69140625 55.23828125 C-25.84942671 52.37426474 -27.37820727 49.57052367 -28.69140625 46.23828125 C-29.05621094 45.34753906 -29.42101562 44.45679688 -29.796875 43.5390625 C-30.95831222 39.25340989 -31.0212787 35.28283313 -31.00390625 30.86328125 C-31.02001953 30.05117187 -31.03613281 29.2390625 -31.05273438 28.40234375 C-31.05913336 20.41640548 -29.03259636 13.83699375 -23.57421875 7.84375 C-16.64940176 1.93897867 -8.8526142 0.07896862 0 0 Z M-20.69140625 16.23828125 C-24.72971423 22.71611316 -24.25726359 32.54891534 -23.3203125 39.9140625 C-21.82511568 45.43978987 -18.66009488 49.09142103 -13.78125 51.93359375 C-7.4414073 54.45196662 -0.17395464 53.67389297 6.52929688 53.67773438 C13.97383088 53.80317975 19.62924805 54.94592781 26.30859375 58.23828125 C27.87480469 58.97304687 27.87480469 58.97304687 29.47265625 59.72265625 C30.69082031 60.34914063 30.69082031 60.34914063 31.93359375 60.98828125 C32.77148438 61.41625 33.609375 61.84421875 34.47265625 62.28515625 C35.38144531 62.75695312 35.38144531 62.75695312 36.30859375 63.23828125 C36.22158203 62.24248047 36.22158203 62.24248047 36.1328125 61.2265625 C35.75824022 53.89564796 35.75824022 53.89564796 38.55859375 50.55078125 C39.46609375 49.78765625 40.37359375 49.02453125 41.30859375 48.23828125 C46.84868222 40.2561801 46.88329008 32.72619239 46.30859375 23.23828125 C45.17902502 17.23809505 41.14803753 13.59987338 36.30859375 10.23828125 C33.46572519 8.61170044 31.39499434 7.98065919 28.12597656 7.93188477 C27.31122864 7.91589737 26.49648071 7.89990997 25.65704346 7.88343811 C24.7840863 7.87807541 23.91112915 7.87271271 23.01171875 7.8671875 C22.10411804 7.85815903 21.19651733 7.84913055 20.26141357 7.83982849 C18.34162692 7.82533335 16.42179094 7.81644108 14.50195312 7.81274414 C11.58247223 7.8008783 8.66512685 7.75171257 5.74609375 7.70117188 C3.87631234 7.69170333 2.00651801 7.68447036 0.13671875 7.6796875 C-0.72814148 7.66015518 -1.59300171 7.64062286 -2.48406982 7.62049866 C-10.20670774 7.67722885 -15.46535354 10.62167639 -20.69140625 16.23828125 Z " fill="#2F1730" transform="translate(334.69140625,38.76171875)"/>
<path d="M0 0 C0.85335937 0.00064453 1.70671875 0.00128906 2.5859375 0.00195312 C8.84301013 0.04650507 8.84301013 0.04650507 11.125 1.1875 C11.125 1.8475 11.125 2.5075 11.125 3.1875 C12.115 3.5175 13.105 3.8475 14.125 4.1875 C14.125 5.1775 14.125 6.1675 14.125 7.1875 C11.03959412 8.21596863 8.8436658 8.32658794 5.609375 8.36328125 C4.52269531 8.38712891 3.43601563 8.41097656 2.31640625 8.43554688 C0.03794571 8.47821952 -2.24075601 8.50962965 -4.51953125 8.52929688 C-11.16732787 8.6980426 -15.4876529 9.18019935 -20.875 13.1875 C-25.85513441 18.69185909 -26.10658187 22.17012627 -26.1875 29.3125 C-26.21650391 30.14265625 -26.24550781 30.9728125 -26.27539062 31.828125 C-26.33542753 37.72097852 -25.34666702 42.32974894 -21.875 47.1875 C-20.3050336 48.5546997 -20.3050336 48.5546997 -18.625 49.75 C-15.875 52.1875 -15.875 52.1875 -15.4375 55.8125 C-15.875 59.1875 -15.875 59.1875 -16.875 62.1875 C-16.15054688 61.78917969 -15.42609375 61.39085937 -14.6796875 60.98046875 C-13.71289062 60.45066406 -12.74609375 59.92085938 -11.75 59.375 C-10.32300781 58.59189453 -10.32300781 58.59189453 -8.8671875 57.79296875 C-7.87976563 57.26316406 -6.89234375 56.73335938 -5.875 56.1875 C-4.96041016 55.66631592 -4.04582031 55.14513184 -3.10351562 54.6081543 C0.47591078 53.03308758 2.88295959 52.83219037 6.7734375 52.8515625 C8.02640625 52.83867187 9.279375 52.82578125 10.5703125 52.8125 C13.18230335 52.8125 15.79430616 52.82026584 18.40625 52.8359375 C27.58637348 52.77863952 27.58637348 52.77863952 35.59326172 48.76513672 C40.80268003 43.39961853 41.57380167 37.9570001 41.4765625 30.6640625 C41.44304687 29.68179687 41.40953125 28.69953125 41.375 27.6875 C41.35695313 26.67429687 41.33890625 25.66109375 41.3203125 24.6171875 C41.27357708 22.14021028 41.20184839 19.6637259 41.125 17.1875 C45.415 17.1875 49.705 17.1875 54.125 17.1875 C54.125 17.8475 54.125 18.5075 54.125 19.1875 C55.12273437 19.1153125 56.12046875 19.043125 57.1484375 18.96875 C76.02611727 17.70589367 94.92445474 18.02779752 113.8263855 18.50689697 C115.31111748 18.54381619 116.79592506 18.57781647 118.28079224 18.60882568 C120.36336834 18.65393902 122.44519776 18.71185196 124.52734375 18.7734375 C125.72866943 18.8048584 126.92999512 18.8362793 128.16772461 18.86865234 C131.125 19.1875 131.125 19.1875 134.125 21.1875 C123.63299909 21.21066219 113.14100426 21.22843491 102.648983 21.23931217 C97.77720995 21.24453249 92.90545439 21.25161475 88.03369141 21.26293945 C83.33287636 21.27379849 78.63207814 21.27978326 73.93125153 21.28237724 C72.13709498 21.28422604 70.34293937 21.28783622 68.54878998 21.29323006 C66.03738916 21.30048046 63.52605802 21.30148924 61.01464844 21.30102539 C59.90010536 21.3064183 59.90010536 21.3064183 58.76304626 21.31192017 C55.40778024 21.30520683 52.33228078 21.2365987 49.125 20.1875 C49.28355469 21.04859375 49.44210938 21.9096875 49.60546875 22.796875 C51.28446502 33.75453484 50.33144695 42.87782957 44.125 52.1875 C43.465 52.1875 42.805 52.1875 42.125 52.1875 C41.74214844 53.10982422 41.74214844 53.10982422 41.3515625 54.05078125 C39.95139163 56.48993242 38.99705726 57.15631668 36.5 58.375 C35.55253906 58.86033203 35.55253906 58.86033203 34.5859375 59.35546875 C29.44626672 61.09316697 24.24871009 61.23282823 18.875 61.22265625 C5.45762537 61.23078518 -3.43385179 63.31437779 -14.875 70.1875 C-18.74892269 71.97630849 -20.73371091 72.45289389 -24.875 71.1875 C-25.205 70.8575 -25.535 70.5275 -25.875 70.1875 C-25.65072347 66.64942327 -25.28814606 63.13271596 -24.93359375 59.60546875 C-24.87725326 56.31893995 -25.09467435 54.87491173 -26.875 52.1875 C-27.535 52.1875 -28.195 52.1875 -28.875 52.1875 C-34.89506799 42.55539121 -35.8517754 33.47997653 -34.875 22.1875 C-33.25245554 15.7307767 -30.54541756 9.67320852 -24.90234375 5.8515625 C-16.78036037 1.03131164 -9.29034157 -0.13704696 0 0 Z " fill="#161A24" transform="translate(138.875,255.8125)"/>
<path d="M0 0 C3.83084349 2.61193874 6.65161815 5.67823629 8.75 9.875 C9.2572965 15.43031248 9.51260422 20.29330236 7.0625 25.375 C3.41876812 29.3141696 0.24497201 32.52883134 -5.30078125 33.078125 C-11.9502343 33.2159375 -15.86584248 31.93404513 -21 27.5 C-24.73300465 23.14482791 -25.68764972 19.64332212 -25.4921875 13.85546875 C-24.77001246 7.94994056 -21.30006664 4.69314779 -16.96875 1.07421875 C-12.00660411 -2.38800577 -5.47141194 -1.89395029 0 0 Z " fill="#23D5E0" transform="translate(313.25,170.125)"/>
<path d="M0 0 C3.77702297 2.63513231 6.60374735 5.7074947 8.6875 9.875 C9.1947965 15.43031248 9.45010422 20.29330236 7 25.375 C0.30370843 32.61423413 0.30370843 32.61423413 -4.703125 33.11328125 C-10.79366678 33.27136908 -14.5865193 33.13990941 -19.3125 28.875 C-24.05971237 23.48627244 -24.77776912 20.10527946 -24.7265625 12.99609375 C-23.93392368 7.02139169 -20.39960782 3.73020696 -16.0625 -0.125 C-10.68588596 -2.08013238 -5.37640181 -1.82594779 0 0 Z " fill="#0DE4EC" transform="translate(195.3125,170.125)"/>
<path d="M0 0 C3.83084349 2.61193874 6.65161815 5.67823629 8.75 9.875 C9.2572965 15.43031248 9.51260422 20.29330236 7.0625 25.375 C3.41165427 29.32186025 0.25971045 32.46009237 -5.265625 33.11328125 C-11.19752504 33.31031989 -14.42493182 32.37553966 -19.25 28.875 C-23.82309632 23.94086976 -24.60752013 19.9854761 -24.53125 13.4453125 C-23.96326915 8.25459865 -21.50278632 5.03611903 -17.6875 1.5 C-12.25080627 -2.12446248 -6.04593486 -2.09282361 0 0 Z " fill="#0DDFE8" transform="translate(254.25,170.125)"/>
<path d="M0 0 C3.28601922 1.03923102 4.09609361 2.15321486 5.96484375 5.1328125 C6.63858853 6.45541706 7.2952232 7.78683134 7.9375 9.125 C8.45582397 10.18340088 8.45582397 10.18340088 8.98461914 11.26318359 C20.10263869 34.69219889 22.14665573 64.2063647 13.7109375 88.83203125 C10.79651011 96.8666684 6.86361625 103.97083199 2 111 C1.2280331 112.22845506 0.45697575 113.45748301 -0.3125 114.6875 C-0.869375 115.450625 -1.42625 116.21375 -2 117 C-2.66 117 -3.32 117 -4 117 C-4.28875 117.598125 -4.5775 118.19625 -4.875 118.8125 C-6 121 -6 121 -8 124 C-8.66 124 -9.32 124 -10 124 C-10 124.66 -10 125.32 -10 126 C-12 127.625 -12 127.625 -14 129 C-12.96715198 137.01630909 -11.34301775 144.93121634 -9.81640625 152.86523438 C-6.203233 172.01077666 -6.203233 172.01077666 -8 178 C-8.66 178 -9.32 178 -10 178 C-10.33 178.99 -10.66 179.98 -11 181 C-14.26809423 182.63404711 -17.46739469 182.51450747 -21 182 C-24.45154569 180.68438524 -27.60305323 178.94393704 -30.8125 177.125 C-31.65748047 176.66480469 -32.50246094 176.20460938 -33.37304688 175.73046875 C-36.67273993 173.92205874 -39.86741431 172.08839046 -43 170 C-39.60731255 168.86910418 -38.77743849 169.13567091 -35.5 170.25 C-34.33984375 170.62898438 -34.33984375 170.62898438 -33.15625 171.015625 C-31 172 -31 172 -29.54296875 173.47265625 C-27.51554662 175.47954753 -25.47027794 176.1865187 -22.8125 177.1875 C-21.46091797 177.70376953 -21.46091797 177.70376953 -20.08203125 178.23046875 C-19.39496094 178.48441406 -18.70789063 178.73835937 -18 179 C-18 179.66 -18 180.32 -18 181 C-17.34 181 -16.68 181 -16 181 C-16 180.34 -16 179.68 -16 179 C-15.01 179 -14.02 179 -13 179 C-13 178.34 -13 177.68 -13 177 C-12.01 177 -11.02 177 -10 177 C-10.33 171.39 -10.66 165.78 -11 160 C-11.66 160 -12.32 160 -13 160 C-13.64675583 155.51877006 -14.2706819 151.03516617 -14.8737793 146.54785156 C-15.08206661 145.02224832 -15.29653691 143.49747582 -15.51733398 141.97363281 C-15.83390802 139.78119685 -16.1280217 137.58672082 -16.41796875 135.390625 C-16.57243721 134.37165131 -16.57243721 134.37165131 -16.73002625 133.33209229 C-17.1217204 130.2088539 -17.27871042 128.45242486 -15.59887695 125.72558594 C-15.07124756 125.15614258 -14.54361816 124.58669922 -14 124 C-13.505 122.515 -13.505 122.515 -13 121 C-11.35178756 119.96986723 -9.68496298 118.96885372 -8 118 C-7.67 117.34 -7.34 116.68 -7 116 C-6.34 116 -5.68 116 -5 116 C-4.71125 115.360625 -4.4225 114.72125 -4.125 114.0625 C-3 112 -3 112 -1 111 C-1 109.35 -1 107.7 -1 106 C-0.01 105.67 0.98 105.34 2 105 C2.33 104.34 2.66 103.68 3 103 C3.66 103 4.32 103 5 103 C5 100.69 5 98.38 5 96 C5.99 95.67 6.98 95.34 8 95 C9.18484255 91.78273123 9.18484255 91.78273123 10.0625 88 C10.65192163 85.65178211 11.28576486 83.31331219 12 81 C12.66 80.67 13.32 80.34 14 80 C15.28537048 71.69359644 15.11053752 63.01626667 15.1875 54.625 C15.20055176 53.80604248 15.21360352 52.98708496 15.22705078 52.14331055 C15.23399718 47.23170802 14.65198131 42.84606224 13.47875977 38.08007812 C12.81891257 35.21322545 12.57714321 32.36857649 12.375 29.4375 C12.30023438 28.40496094 12.22546875 27.37242187 12.1484375 26.30859375 C12.09945312 25.54675781 12.05046875 24.78492188 12 24 C11.34 24 10.68 24 10 24 C9.71125 22.865625 9.4225 21.73125 9.125 20.5625 C8.75375 19.386875 8.3825 18.21125 8 17 C7.34 16.67 6.68 16.34 6 16 C5.40644386 13.35139573 5.25790731 10.70802678 5 8 C3.35 8.33 1.7 8.66 0 9 C-1 6 -1 6 0 3 C0 2.01 0 1.02 0 0 Z " fill="#511C44" transform="translate(357,128)"/>
<path d="M0 0 C3.3 0.33 6.6 0.66 10 1 C10 1.66 10 2.32 10 3 C10.66 2.67 11.32 2.34 12 2 C12 1.34 12 0.68 12 0 C12.99 0 13.98 0 15 0 C15.33 0.99 15.66 1.98 16 3 C16 2.01 16 1.02 16 0 C16.99 0 17.98 0 19 0 C19 0.66 19 1.32 19 2 C20.65 2 22.3 2 24 2 C23.34 3.98 22.68 5.96 22 8 C21.01 8 20.02 8 19 8 C19.495 8.99 19.495 8.99 20 10 C20.99 10 21.98 10 23 10 C22.79375 11.11375 22.5875 12.2275 22.375 13.375 C22.189375 15.169375 22.189375 15.169375 22 17 C22.66 17.66 23.32 18.32 24 19 C23.62875 19.9075 23.2575 20.815 22.875 21.75 C21.64167611 24.84446262 21.64167611 24.84446262 23 26.84375 C24.36988461 29.79756369 23.79919139 31.60377353 23.125 34.75 C22.92132813 35.73484375 22.71765625 36.7196875 22.5078125 37.734375 C22.34023437 38.48203125 22.17265625 39.2296875 22 40 C20.41693353 40.16918268 18.83353281 40.33523936 17.25 40.5 C16.36828125 40.5928125 15.4865625 40.685625 14.578125 40.78125 C8.58031088 41.29015544 8.58031088 41.29015544 6 40 C5.01 40.2475 5.01 40.2475 4 40.5 C2 41 2 41 0 40 C-0.66 40.66 -1.32 41.32 -2 42 C-4.625 42.125 -4.625 42.125 -7 42 C-10 35.25 -10 35.25 -10 33 C-12.475 33.495 -12.475 33.495 -15 34 C-15 31 -15 31 -14 29 C-14.66 29 -15.32 29 -16 29 C-16 8 -16 8 -15 6 C-14.34 6.33 -13.68 6.66 -13 7 C-13 6.34 -13 5.68 -13 5 C-12.21625 4.690625 -11.4325 4.38125 -10.625 4.0625 C-8.07669872 3.07124962 -8.07669872 3.07124962 -6 2 C-4.00039988 1.960008 -1.99952758 1.95653201 0 2 C0 1.34 0 0.68 0 0 Z M-10.875 10 C-14.13653935 14.88703145 -13.84630288 20.36581693 -13 26 C-10.58064724 31.01791684 -7.0008269 34.49958655 -2 37 C3.25575165 37.5238576 7.64526095 37.66505372 12.4375 35.3125 C16.20278052 31.91456392 19.7614198 28.61264873 20.23828125 23.390625 C20.44171646 14.97059545 20.44171646 14.97059545 16 8 C10.97475006 3.46501834 7.10565238 2.63055011 0.5 2.7265625 C-4.56492361 3.28053852 -7.64821328 6.32380009 -10.875 10 Z " fill="#0D3F77" transform="translate(184,166)"/>
<path d="M0 0 C-0.66 0 -1.32 0 -2 0 C-2 0.66 -2 1.32 -2 2 C-4.375 4.625 -4.375 4.625 -7 7 C-7.66 7 -8.32 7 -9 7 C-9.33 8.32 -9.66 9.64 -10 11 C-10.66 10.67 -11.32 10.34 -12 10 C-15.27263601 11.4726862 -16.72014048 12.42695432 -18.3125 15.6875 C-18.6528125 16.8321875 -18.6528125 16.8321875 -19 18 C-20.98 17.67 -22.96 17.34 -25 17 C-26.41377341 19.63904371 -27.37240135 22.07120629 -28 25 C-27.34 25.33 -26.68 25.66 -26 26 C-27.32 26 -28.64 26 -30 26 C-34.03190802 28.96463825 -34.90051484 32.23556432 -36 37 C-37.32 37 -38.64 37 -40 37 C-40.66 38.98 -41.32 40.96 -42 43 C-42.66 43 -43.32 43 -44 43 C-43.938125 43.969375 -43.87625 44.93875 -43.8125 45.9375 C-43.78374119 50.61559946 -45.35228793 54.67475582 -47 59 C-47.66 59 -48.32 59 -49 59 C-51.56622331 70.93752093 -51.20232807 82.85564688 -51 95 C-51.99 95 -52.98 95 -54 95 C-54.81461906 69.21417347 -52.28463794 44.46196109 -35 24 C-33.7934375 22.56914063 -33.7934375 22.56914063 -32.5625 21.109375 C-28.20242654 16.1064702 -28.20242654 16.1064702 -26 14 C-25.34 14 -24.68 14 -24 14 C-24 13.34 -24 12.68 -24 12 C-22.03080834 10.44505903 -20.07644737 9.0235166 -18 7.625 C-17.40783691 7.2223291 -16.81567383 6.8196582 -16.20556641 6.40478516 C-4.44699842 -1.48233281 -4.44699842 -1.48233281 0 0 Z " fill="#184C9B" transform="translate(171,101)"/>
<path d="M0 0 C2.39602374 2.39602374 2.48831477 3.65161648 3.0625 6.9375 C3.7311465 12.20812746 3.7311465 12.20812746 6.625 16.375 C7.07875 16.91125 7.5325 17.4475 8 18 C7.6875 20.6875 7.6875 20.6875 7 23 C7.66 23.33 8.32 23.66 9 24 C11.58018042 26.16735155 12.41800102 27.70200576 13 31 C13.185625 31.9075 13.37125 32.815 13.5625 33.75 C13.706875 34.4925 13.85125 35.235 14 36 C14.99 36.33 15.98 36.66 17 37 C17.33 38.65 17.66 40.3 18 42 C18.598125 42.04125 19.19625 42.0825 19.8125 42.125 C23.09750076 43.4390003 23.57319593 45.88697293 25 49 C25.66 49.33 26.32 49.66 27 50 C27 50.66 27 51.32 27 52 C28.175625 52.0928125 28.175625 52.0928125 29.375 52.1875 C30.24125 52.455625 31.1075 52.72375 32 53 C32.70211894 54.65204456 33.36971413 56.31923769 34 58 C34.598125 58.144375 35.19625 58.28875 35.8125 58.4375 C39.38622281 59.35645729 40.79950846 62.12713604 43 65 C43.61875 64.505 44.2375 64.01 44.875 63.5 C47 62 47 62 49 62 C49 64 49 66 49 68 C50.98 67.505 50.98 67.505 53 67 C53 67.99 53 68.98 53 70 C54.32 70 55.64 70 57 70 C57 70.99 57 71.98 57 73 C57.99 73 58.98 73 60 73 C60 73.66 60 74.32 60 75 C55.16993925 74.36794127 51.28618814 72.3661805 47 70.1875 C46.30132812 69.84396484 45.60265625 69.50042969 44.8828125 69.14648438 C40.85047199 67.11890184 37.4992884 64.8806642 34 62 C33.01 61.67 32.02 61.34 31 61 C29.40429688 59.43798828 29.40429688 59.43798828 27.71875 57.4453125 C27.10515625 56.72118164 26.4915625 55.99705078 25.859375 55.25097656 C12.9433365 39.61470097 -1.71211371 21.49653885 0 0 Z " fill="#114572" transform="translate(119,198)"/>
<path d="M0 0 C-0.99 0.495 -0.99 0.495 -2 1 C-2.99 0.67 -3.98 0.34 -5 0 C-10.39350878 -0.63760472 -14.90093226 -0.38080219 -19.4921875 2.68359375 C-23.03840082 5.7796401 -24.70765229 8.90373407 -25.34375 13.46484375 C-25.53212708 18.68445872 -25.03861087 22.59925322 -22 27 C-17.25675637 31.38750036 -13.55673949 32.28774868 -7.28515625 32.2265625 C-2.82935877 31.78479113 0.36363598 29.42424268 4 27 C1.9851925 33.97433366 1.9851925 33.97433366 -1 36 C-4.125 36.75 -4.125 36.75 -7 37 C-7.495 36.505 -7.495 36.505 -8 36 C-9.51928038 35.92820036 -11.04167482 35.91607993 -12.5625 35.9375 C-13.38878906 35.94652344 -14.21507812 35.95554688 -15.06640625 35.96484375 C-15.70449219 35.97644531 -16.34257812 35.98804688 -17 36 C-17.33 36.66 -17.66 37.32 -18 38 C-18.33 37.34 -18.66 36.68 -19 36 C-20.485 36.495 -20.485 36.495 -22 37 C-22.33 34.69 -22.66 32.38 -23 30 C-25.64 30 -28.28 30 -31 30 C-30.625 27.0625 -30.625 27.0625 -30 24 C-29.34 23.67 -28.68 23.34 -28 23 C-28.66 22.34 -29.32 21.68 -30 21 C-29.34 20.34 -28.68 19.68 -28 19 C-28.185625 18.113125 -28.37125 17.22625 -28.5625 16.3125 C-29.26384283 11.00233288 -26.88714143 7.33071215 -24 3 C-23.67 2.67 -23.34 2.34 -23 2 C-23.33 1.34 -23.66 0.68 -24 0 C-16.5101564 -2.30456726 -7.06868593 -4.24121156 0 0 Z " fill="#1C3872" transform="translate(256,170)"/>
<path d="M0 0 C3.28601922 1.03923102 4.09609361 2.15321486 5.96484375 5.1328125 C6.63858853 6.45541706 7.2952232 7.78683134 7.9375 9.125 C8.28304932 9.83060059 8.62859863 10.53620117 8.98461914 11.26318359 C15.43538714 24.85689437 18.19733342 38.00993449 18.24023438 53.05029297 C18.25000647 55.12637424 18.28111456 57.20149129 18.3125 59.27734375 C18.31765625 60.59089844 18.3228125 61.90445313 18.328125 63.2578125 C18.34214355 65.05436279 18.34214355 65.05436279 18.35644531 66.88720703 C17.97393663 70.22760819 17.26772205 71.58034806 15 74 C15.01047363 73.16863525 15.02094727 72.33727051 15.03173828 71.48071289 C15.0661057 68.35523529 15.09103659 65.22985498 15.10986328 62.10424805 C15.12470245 60.10263623 15.15013361 58.10111188 15.17578125 56.09960938 C15.20750377 49.80268836 15.09528746 43.9902829 13.48095703 37.88891602 C12.76966252 35.09537002 12.57290021 32.30705308 12.375 29.4375 C12.30023438 28.40496094 12.22546875 27.37242187 12.1484375 26.30859375 C12.09945313 25.54675781 12.05046875 24.78492188 12 24 C11.34 24 10.68 24 10 24 C9.71125 22.865625 9.4225 21.73125 9.125 20.5625 C8.75375 19.386875 8.3825 18.21125 8 17 C7.34 16.67 6.68 16.34 6 16 C5.40644386 13.35139573 5.25790731 10.70802678 5 8 C3.35 8.33 1.7 8.66 0 9 C-1 6 -1 6 0 3 C0 2.01 0 1.02 0 0 Z " fill="#72214F" transform="translate(357,128)"/>
<path d="M0 0 C1.67542976 0.28604898 3.34385343 0.61781233 5 1 C3.9171875 1.7734375 3.9171875 1.7734375 2.8125 2.5625 C-1.44491021 6.25225551 -4.55762241 9.15886806 -5.453125 14.91015625 C-5.61899451 19.69075253 -5.40418815 23.1294409 -3.375 27.5 C1.75370378 32.89863555 5.76444248 34.50099603 13 35 C13 35.99 13 36.98 13 38 C9.25 39.125 9.25 39.125 7 38 C6.34 38.66 5.68 39.32 5 40 C2.375 40.125 2.375 40.125 0 40 C-3 33.25 -3 33.25 -3 31 C-4.65 31.33 -6.3 31.66 -8 32 C-8 29 -8 29 -7 27 C-7.66 27 -8.32 27 -9 27 C-9 6 -9 6 -8 4 C-7.34 4.33 -6.68 4.66 -6 5 C-6 4.34 -6 3.68 -6 3 C-5.195625 2.690625 -4.39125 2.38125 -3.5625 2.0625 C-1.10919595 1.23664655 -1.10919595 1.23664655 0 0 Z " fill="#0F437F" transform="translate(177,168)"/>
<path d="M0 0 C3.63 0 7.26 0 11 0 C11 0.66 11 1.32 11 2 C12.49660156 1.89171875 12.49660156 1.89171875 14.0234375 1.78125 C32.90111727 0.51839367 51.79945474 0.84029752 70.7013855 1.31939697 C72.18611748 1.35631619 73.67092506 1.39031647 75.15579224 1.42132568 C77.23836834 1.46643902 79.32019776 1.52435196 81.40234375 1.5859375 C82.60366943 1.6173584 83.80499512 1.6487793 85.04272461 1.68115234 C88 2 88 2 91 4 C80.61166222 4.06972357 70.22338076 4.12292438 59.83485603 4.15543652 C55.01026223 4.17104617 50.18582934 4.19219796 45.36132812 4.22631836 C40.69937447 4.25908023 36.03757494 4.27688831 31.37551498 4.28463173 C29.60304211 4.29014517 27.83057701 4.30091111 26.05817032 4.31719017 C8.2305838 4.4743165 8.2305838 4.4743165 0 1 C0 0.67 0 0.34 0 0 Z " fill="#1C233F" transform="translate(182,273)"/>
<path d="M0 0 C0.33 0 0.66 0 1 0 C1.81951164 4.29035793 2.62931573 8.58249512 3.4375 12.875 C3.66759766 14.07898438 3.89769531 15.28296875 4.13476562 16.5234375 C7.79176683 36.02744391 7.79176683 36.02744391 6 42 C5.34 42 4.68 42 4 42 C3.67 42.99 3.34 43.98 3 45 C-0.26809423 46.63404711 -3.46739469 46.51450747 -7 46 C-10.45154569 44.68438524 -13.60305323 42.94393704 -16.8125 41.125 C-17.65748047 40.66480469 -18.50246094 40.20460938 -19.37304688 39.73046875 C-22.67273993 37.92205874 -25.86741431 36.08839046 -29 34 C-25.60731255 32.86910418 -24.77743849 33.13567091 -21.5 34.25 C-20.33984375 34.62898438 -20.33984375 34.62898438 -19.15625 35.015625 C-17 36 -17 36 -15.54296875 37.47265625 C-13.51554662 39.47954753 -11.47027794 40.1865187 -8.8125 41.1875 C-7.91144531 41.53167969 -7.01039063 41.87585938 -6.08203125 42.23046875 C-5.05142578 42.61138672 -5.05142578 42.61138672 -4 43 C-4 43.66 -4 44.32 -4 45 C-3.34 45 -2.68 45 -2 45 C-2 44.34 -2 43.68 -2 43 C-1.01 43 -0.02 43 1 43 C1 42.34 1 41.68 1 41 C1.99 41 2.98 41 4 41 C3.67 35.39 3.34 29.78 3 24 C2.34 24 1.68 24 1 24 C-0.03387512 15.9874678 -0.10466648 8.07094823 0 0 Z " fill="#371736" transform="translate(343,264)"/>
<path d="M0 0 C4.54831461 -0.40504471 7.31868008 0.89336971 11.3125 3 C12.38113281 3.556875 13.44976562 4.11375 14.55078125 4.6875 C15.35902344 5.120625 16.16726563 5.55375 17 6 C17 6.66 17 7.32 17 8 C17.66 8.20625 18.32 8.4125 19 8.625 C23.07180186 10.49124252 26.68796998 12.97561527 30 16 C30 16.66 30 17.32 30 18 C30.66 18 31.32 18 32 18 C32 18.66 32 19.32 32 20 C32.66 20 33.32 20 34 20 C34.99 22.31 35.98 24.62 37 27 C35.35 26.67 33.7 26.34 32 26 C31.67 24.35 31.34 22.7 31 21 C30.34 21 29.68 21 29 21 C28.67 21.66 28.34 22.32 28 23 C25.7522025 20.94766315 24.9977758 19.99332739 24 17 C23.01 16.67 22.02 16.34 21 16 C20.67 15.01 20.34 14.02 20 13 C17.49552484 11.78130071 17.49552484 11.78130071 15 11 C15 10.34 15 9.68 15 9 C14.38125 9.495 13.7625 9.99 13.125 10.5 C11 12 11 12 9 12 C9 10.35 9 8.7 9 7 C7.906875 6.319375 6.81375 5.63875 5.6875 4.9375 C5.07261719 4.55464844 4.45773437 4.17179687 3.82421875 3.77734375 C1.82866925 2.68887926 1.82866925 2.68887926 -1 4 C-0.67 2.68 -0.34 1.36 0 0 Z " fill="#8C235D" transform="translate(319,100)"/>
<path d="M0 0 C9.16309766 -0.04660734 18.3261537 -0.08201209 27.4893446 -0.10362434 C31.74546218 -0.11400391 36.00149788 -0.12805485 40.25756836 -0.15087891 C44.37488406 -0.17281741 48.49212165 -0.18461228 52.60949135 -0.18975449 C54.17014099 -0.19341294 55.73078699 -0.20055534 57.29140282 -0.21146011 C70.00904134 -0.29668485 81.97988213 0.51792215 94 5 C93.67 6.32 93.34 7.64 93 9 C90.61397589 8.57392427 89.23972069 8.21921361 87.42749023 6.56201172 C83.80338299 4.23001553 80.13487578 3.89231702 75.91015625 3.3203125 C74.99186539 3.19334991 74.07357452 3.06638733 73.12745667 2.93557739 C61.25910056 1.45884469 49.37347286 1.71313897 37.4375 1.875 C33.99294047 1.91039346 30.54842437 1.94115214 27.10377502 1.96633911 C24.98549673 1.98295552 22.86725309 2.00577439 20.74913025 2.03634644 C13.78052689 2.1062811 6.93404817 1.68725239 0 1 C0 0.67 0 0.34 0 0 Z " fill="#6D2B72" transform="translate(224,94)"/>
<path d="M0 0 C-0.66 0 -1.32 0 -2 0 C-2 0.66 -2 1.32 -2 2 C-4.375 4.625 -4.375 4.625 -7 7 C-7.66 7 -8.32 7 -9 7 C-9.33 8.32 -9.66 9.64 -10 11 C-10.66 10.67 -11.32 10.34 -12 10 C-15.27263601 11.4726862 -16.72014048 12.42695432 -18.3125 15.6875 C-18.6528125 16.8321875 -18.6528125 16.8321875 -19 18 C-20.98 17.67 -22.96 17.34 -25 17 C-25 17.66 -25 18.32 -25 19 C-30.29411765 23 -30.29411765 23 -34 23 C-32.71520959 21.49410612 -31.42195918 19.99542625 -30.125 18.5 C-29.04605469 17.24703125 -29.04605469 17.24703125 -27.9453125 15.96875 C-27.30335938 15.3190625 -26.66140625 14.669375 -26 14 C-25.34 14 -24.68 14 -24 14 C-24 13.34 -24 12.68 -24 12 C-22.03080834 10.44505903 -20.07644737 9.0235166 -18 7.625 C-17.40783691 7.2223291 -16.81567383 6.8196582 -16.20556641 6.40478516 C-4.44699842 -1.48233281 -4.44699842 -1.48233281 0 0 Z " fill="#253191" transform="translate(171,101)"/>
<path d="M0 0 C2.94073282 0.63015703 5.33438825 1.62420038 8 3 C8.99 3.33 9.98 3.66 11 4 C12.84499398 5.87617698 14.3683599 7.92737609 16 10 C16.61875 9.505 17.2375 9.01 17.875 8.5 C20 7 20 7 22 7 C22 9 22 11 22 13 C23.32 12.67 24.64 12.34 26 12 C26 12.99 26 13.98 26 15 C27.32 15 28.64 15 30 15 C30 15.99 30 16.98 30 18 C30.99 18 31.98 18 33 18 C33 18.66 33 19.32 33 20 C28.16993925 19.36794127 24.28618814 17.3661805 20 15.1875 C19.30132812 14.84396484 18.60265625 14.50042969 17.8828125 14.14648438 C13.85047199 12.11890184 10.4992884 9.8806642 7 7 C6.01 6.67 5.02 6.34 4 6 C2.60287726 4.04402816 1.26220093 2.04563599 0 0 Z " fill="#0F3861" transform="translate(146,253)"/>
<path d="M0 0 C3.3 0.33 6.6 0.66 10 1 C10 1.66 10 2.32 10 3 C10.66 2.67 11.32 2.34 12 2 C12 1.34 12 0.68 12 0 C12.99 0 13.98 0 15 0 C15.33 0.99 15.66 1.98 16 3 C16 2.01 16 1.02 16 0 C16.99 0 17.98 0 19 0 C19 0.66 19 1.32 19 2 C20.65 2 22.3 2 24 2 C23.34 3.98 22.68 5.96 22 8 C21.01 8 20.02 8 19 8 C19.33 8.66 19.66 9.32 20 10 C20.99 10 21.98 10 23 10 C22.34 14.29 21.68 18.58 21 23 C20.67 23 20.34 23 20 23 C19.97421875 22.41992188 19.9484375 21.83984375 19.921875 21.2421875 C19.46506865 14.95071824 18.06030863 10.83723374 13.28515625 6.41015625 C10.30146711 4.56893953 7.71405175 4.26282673 4.25 3.8125 C3.07953125 3.65394531 1.9090625 3.49539062 0.703125 3.33203125 C-0.18890625 3.22246094 -1.0809375 3.11289063 -2 3 C-1.34 2.67 -0.68 2.34 0 2 C0 1.34 0 0.68 0 0 Z " fill="#184189" transform="translate(184,166)"/>
<path d="M0 0 C1.98 0 3.96 0 6 0 C5.67 0.721875 5.34 1.44375 5 2.1875 C3.96757787 5.09118724 3.59919099 6.95385151 4 10 C5.5508492 11.97380807 6.75755739 12.8787787 9 14 C7.37660195 15.70884005 5.70680947 17.37446717 4 19 C3.34 19 2.68 19 2 19 C2 19.66 2 20.32 2 21 C1.34 21 0.68 21 0 21 C-0.28875 21.61875 -0.5775 22.2375 -0.875 22.875 C-2 25 -2 25 -4 27 C-4.625 25.125 -4.625 25.125 -5 23 C-4.34 22.34 -3.68 21.68 -3 21 C-1.11140704 16.4211811 -0.60289291 12.02469759 -0.375 7.125 C-0.31699219 6.09246094 -0.31699219 6.09246094 -0.2578125 5.0390625 C-0.16451834 3.35976754 -0.08121762 1.67992233 0 0 Z " fill="#632460" transform="translate(322,177)"/>
<path d="M0 0 C1.21236328 0.01353516 1.21236328 0.01353516 2.44921875 0.02734375 C3.37154297 0.04474609 3.37154297 0.04474609 4.3125 0.0625 C4.6425 1.7125 4.9725 3.3625 5.3125 5.0625 C4.3225 4.7325 3.3325 4.4025 2.3125 4.0625 C-0.31426615 4.0625 -2.15851666 4.23911008 -4.6875 5.0625 C-6.52306653 6.94526681 -8.05741573 8.99185241 -9.6875 11.0625 C-10.3475 11.0625 -11.0075 11.0625 -11.6875 11.0625 C-11.6875 12.0525 -11.6875 13.0425 -11.6875 14.0625 C-12.6775 14.7225 -13.6675 15.3825 -14.6875 16.0625 C-15.42093428 19.12806598 -15.42093428 19.12806598 -15.6875 22.0625 C-16.0175 22.0625 -16.3475 22.0625 -16.6875 22.0625 C-17.19203712 15.09708478 -16.89546217 10.74893536 -12.6875 5.0625 C-8.57436576 1.2503268 -5.56776964 -0.08069231 0 0 Z " fill="#12F0F5" transform="translate(246.6875,168.9375)"/>
<path d="M0 0 C3.68462985 3.52442856 4.19179334 5.64220248 4.3125 10.75 C4.26196419 16.03099209 3.69408863 19.00639067 0 23 C-4.74611798 27.28308208 -8.39851683 28.36260059 -14.65234375 28.28125 C-19.75358102 27.67012008 -23.05454292 25.06666953 -26.4375 21.25 C-26.953125 20.5075 -27.46875 19.765 -28 19 C-27.34 18.67 -26.68 18.34 -26 18 C-26 18.66 -26 19.32 -26 20 C-24.824375 20.0928125 -24.824375 20.0928125 -23.625 20.1875 C-22.75875 20.455625 -21.8925 20.72375 -21 21 C-19.6875 23.5625 -19.6875 23.5625 -19 26 C-17.205625 25.7525 -17.205625 25.7525 -15.375 25.5 C-11.89451285 25.06029433 -8.51228512 24.91219287 -5 25 C-4.67 24.01 -4.34 23.02 -4 22 C-1.9375 21.3125 -1.9375 21.3125 0 21 C-0.33 19.68 -0.66 18.36 -1 17 C-0.34 16.67 0.32 16.34 1 16 C1.02712153 14.083412 1.04645097 12.1667127 1.0625 10.25 C1.07410156 9.18265625 1.08570313 8.1153125 1.09765625 7.015625 C1.01510087 4.46631499 0.74617558 2.42066409 0 0 Z " fill="#24C1D3" transform="translate(259,175)"/>
<path d="M0 0 C0 0.33 0 0.66 0 1 C-2.97 1 -5.94 1 -9 1 C-9.33 1.99 -9.66 2.98 -10 4 C-10.66 4 -11.32 4 -12 4 C-12 4.66 -12 5.32 -12 6 C-12.804375 6.5775 -13.60875 7.155 -14.4375 7.75 C-17.21337226 9.79763322 -17.21337226 9.79763322 -17.9375 12.9375 C-18.00472409 16.2314806 -17.32916435 18.02892674 -16 21 C-16 22.32 -16 23.64 -16 25 C-15.01 25.33 -14.02 25.66 -13 26 C-13.33 26.66 -13.66 27.32 -14 28 C-16.375 27.75 -16.375 27.75 -19 27 C-22.1883022 22.25052914 -21.80335593 16.4558346 -21 11 C-16.45471646 1.4381828 -9.96030465 -0.52219073 0 0 Z " fill="#21E5F6" transform="translate(192,169)"/>
<path d="M0 0 C0.33 0 0.66 0 1 0 C1.62367661 10.70644851 1.62367661 10.70644851 -0.6875 15.5 C-7.46968638 22.83209339 -7.46968638 22.83209339 -12.53125 23.16796875 C-13.5109375 23.17441406 -14.490625 23.18085938 -15.5 23.1875 C-16.4796875 23.20167969 -17.459375 23.21585938 -18.46875 23.23046875 C-21 23 -21 23 -23 21 C-19.7 20.67 -16.4 20.34 -13 20 C-13 19.34 -13 18.68 -13 18 C-11.68 18 -10.36 18 -9 18 C-9 17.34 -9 16.68 -9 16 C-10.32 15.67 -11.64 15.34 -13 15 C-12.01 14.01 -11.02 13.02 -10 12 C-8.02 12.99 -6.04 13.98 -4 15 C-0.43122553 10.34507678 -0.31824005 5.65150436 0 0 Z " fill="#08CDD9" transform="translate(203,180)"/>
<path d="M0 0 C0.33 0 0.66 0 1 0 C0.85834107 2.39614575 0.71181159 4.79182897 0.5625 7.1875 C0.50352539 8.19780273 0.50352539 8.19780273 0.44335938 9.22851562 C0.26799251 11.99391622 0.0691304 14.67826765 -0.51367188 17.390625 C-1.0303853 20.16303115 -1.1134015 22.70113202 -1.09765625 25.51953125 C-1.09443359 26.54111328 -1.09121094 27.56269531 -1.08789062 28.61523438 C-1.07951172 29.67033203 -1.07113281 30.72542969 -1.0625 31.8125 C-1.05798828 32.88693359 -1.05347656 33.96136719 -1.04882812 35.06835938 C-1.03707729 37.71229683 -1.02064787 40.35611952 -1 43 C-1.99 43 -2.98 43 -4 43 C-4.47156629 28.07311331 -4.12230155 14.40965228 0 0 Z " fill="#154F88" transform="translate(121,153)"/>
<path d="M0 0 C0 3.10551666 -0.5393715 4.35261084 -2 7 C-2.66 7 -3.32 7 -4 7 C-3.67 8.32 -3.34 9.64 -3 11 C-4.26457031 10.85691406 -4.26457031 10.85691406 -5.5546875 10.7109375 C-6.65039062 10.60007813 -7.74609375 10.48921875 -8.875 10.375 C-9.96554687 10.25898438 -11.05609375 10.14296875 -12.1796875 10.0234375 C-13.11039062 10.01570312 -14.04109375 10.00796875 -15 10 C-15.66 10.66 -16.32 11.32 -17 12 C-20.31832766 11.01347016 -21.76548627 10.31268497 -23.875 7.5 C-24.24625 6.675 -24.6175 5.85 -25 5 C-24.67 4.34 -24.34 3.68 -24 3 C-23.195625 3.495 -22.39125 3.99 -21.5625 4.5 C-15.9743199 6.85291793 -11.27638552 6.88526104 -5.625 4.6875 C-3.41177788 3.26471435 -1.70373489 1.98769071 0 0 Z " fill="#3C2C60" transform="translate(319,196)"/>
<path d="M0 0 C4.54831461 -0.40504471 7.31868008 0.89336971 11.3125 3 C12.38113281 3.556875 13.44976562 4.11375 14.55078125 4.6875 C15.35902344 5.120625 16.16726563 5.55375 17 6 C17 6.66 17 7.32 17 8 C17.66 8 18.32 8 19 8 C19.33 9.32 19.66 10.64 20 12 C17.525 11.505 17.525 11.505 15 11 C15 10.34 15 9.68 15 9 C14.38125 9.495 13.7625 9.99 13.125 10.5 C11 12 11 12 9 12 C9 10.35 9 8.7 9 7 C7.906875 6.319375 6.81375 5.63875 5.6875 4.9375 C5.07261719 4.55464844 4.45773437 4.17179687 3.82421875 3.77734375 C1.82866925 2.68887926 1.82866925 2.68887926 -1 4 C-0.67 2.68 -0.34 1.36 0 0 Z " fill="#962468" transform="translate(319,100)"/>
<path d="M0 0 C0.639375 0.33 1.27875 0.66 1.9375 1 C-1.60924003 2.18224668 -4.03772995 1.89329634 -7.75 1.5625 C-8.92949219 1.46066406 -10.10898437 1.35882813 -11.32421875 1.25390625 C-12.22785156 1.17011719 -13.13148438 1.08632812 -14.0625 1 C-13.7325 1.99 -13.4025 2.98 -13.0625 4 C-13.61679687 4.23074219 -14.17109375 4.46148437 -14.7421875 4.69921875 C-19.28938429 6.70560971 -19.28938429 6.70560971 -22.625 10.25 C-23.56518513 16.15973511 -22.13027773 21.48592604 -20.0625 27 C-23.51185605 24.7004293 -23.96054378 23.89922969 -25.0625 20 C-25.50926061 14.37081629 -25.30554628 10.81226223 -22.0625 6 C-15.60090421 -0.52269835 -9.02209938 -2.94599163 0 0 Z " fill="#43C8D9" transform="translate(313.0625,170)"/>
<path d="M0 0 C0.33 0.66 0.66 1.32 1 2 C-3.22295082 8.93770492 -3.22295082 8.93770492 -7 10 C-7.60328125 9.84789062 -8.2065625 9.69578125 -8.828125 9.5390625 C-11.21738154 8.94604559 -13.2927535 8.90136402 -15.75 8.9375 C-16.94882813 8.95103516 -16.94882813 8.95103516 -18.171875 8.96484375 C-18.77515625 8.97644531 -19.3784375 8.98804688 -20 9 C-20.33 9.66 -20.66 10.32 -21 11 C-21.33 10.34 -21.66 9.68 -22 9 C-22.99 9.33 -23.98 9.66 -25 10 C-25.33 8.35 -25.66 6.7 -26 5 C-24.25 4.375 -24.25 4.375 -22 4 C-21.1028125 4.4640625 -21.1028125 4.4640625 -20.1875 4.9375 C-17.63373744 6.17789896 -15.57082929 6.40230295 -12.75 6.625 C-11.41195312 6.73714844 -11.41195312 6.73714844 -10.046875 6.8515625 C-9.03367188 6.92503906 -9.03367188 6.92503906 -8 7 C-8 6.34 -8 5.68 -8 5 C-7.05125 4.54625 -6.1025 4.0925 -5.125 3.625 C-1.99686321 2.19761746 -1.99686321 2.19761746 0 0 Z " fill="#1F356C" transform="translate(259,197)"/>
<path d="M0 0 C1.67542976 0.28604898 3.34385343 0.61781233 5 1 C3.9171875 1.7734375 3.9171875 1.7734375 2.8125 2.5625 C-2.03325857 6.76215743 -5.08534576 10.42383662 -5.8125 16.9375 C-5.89607611 18.29052943 -5.96619716 19.6448133 -6 21 C-6.66 20.67 -7.32 20.34 -8 20 C-8.4140625 17.6015625 -8.4140625 17.6015625 -8.625 14.625 C-8.69976562 13.64789063 -8.77453125 12.67078125 -8.8515625 11.6640625 C-9.15039578 6.30079156 -9.15039578 6.30079156 -8 4 C-7.34 4.33 -6.68 4.66 -6 5 C-6 4.34 -6 3.68 -6 3 C-5.195625 2.690625 -4.39125 2.38125 -3.5625 2.0625 C-1.10919595 1.23664655 -1.10919595 1.23664655 0 0 Z " fill="#0B4F94" transform="translate(177,168)"/>
<path d="M0 0 C-0.99 0.495 -0.99 0.495 -2 1 C-2.99 0.67 -3.98 0.34 -5 0 C-10.39924807 -0.6382832 -14.89078209 -0.36949444 -19.49609375 2.67578125 C-24.56301277 7.13730215 -25.5452866 12.52033408 -26 19 C-26.66 19 -27.32 19 -28 19 C-29.42144942 13.70187035 -28.46118968 10.83122418 -26 6 C-24 3 -24 3 -23 2 C-23.33 1.34 -23.66 0.68 -24 0 C-16.5101564 -2.30456726 -7.06868593 -4.24121156 0 0 Z " fill="#0E4D80" transform="translate(256,170)"/>
<path d="M0 0 C3.63 0 7.26 0 11 0 C11 0.66 11 1.32 11 2 C12.49660156 1.89171875 12.49660156 1.89171875 14.0234375 1.78125 C27.68314081 0.87265461 41.31511497 0.89663984 55 1 C55 1.66 55 2.32 55 3 C48.13154261 3.05079385 41.26313385 3.08577306 34.39453125 3.10986328 C32.05890086 3.11990831 29.723283 3.13354677 27.38769531 3.15087891 C24.02666119 3.17519277 20.66579366 3.18649827 17.3046875 3.1953125 C15.74341629 3.21079636 15.74341629 3.21079636 14.15060425 3.22659302 C9.02983621 3.2273819 4.78972941 3.0629386 0 1 C0 0.67 0 0.34 0 0 Z " fill="#173056" transform="translate(182,273)"/>
<path d="M0 0 C2.10388569 -0.05402274 4.20816714 -0.09280256 6.3125 -0.125 C8.07013672 -0.15980469 8.07013672 -0.15980469 9.86328125 -0.1953125 C13 0 13 0 16 2 C14.02 2.33 12.04 2.66 10 3 C10 2.34 10 1.68 10 1 C5.39257135 2.21044132 5.39257135 2.21044132 1 4 C0.566875 4.99 0.566875 4.99 0.125 6 C-0.24625 6.66 -0.6175 7.32 -1 8 C-1.639375 8.12375 -2.27875 8.2475 -2.9375 8.375 C-5.38440249 8.85862651 -5.38440249 8.85862651 -6.75 12.0625 C-7.1625 13.031875 -7.575 14.00125 -8 15 C-8.66 14.01 -9.32 13.02 -10 12 C-9.01 10.02 -8.02 8.04 -7 6 C-6.34 6 -5.68 6 -5 6 C-4.67 5.34 -4.34 4.68 -4 4 C-1.9375 2.875 -1.9375 2.875 0 2 C0 1.34 0 0.68 0 0 Z " fill="#2AE5EA" transform="translate(299,171)"/>
<path d="M0 0 C20.69018743 -0.65490628 20.69018743 -0.65490628 30 4 C29.67 5.32 29.34 6.64 29 8 C26.540932 7.56088071 25.13344942 7.10824508 23.17089844 5.51635742 C20.67619327 3.77382326 19.0150928 3.43485944 16.015625 3.05078125 C15.08105469 2.92509766 14.14648438 2.79941406 13.18359375 2.66992188 C11.73146484 2.49299805 11.73146484 2.49299805 10.25 2.3125 C9.26644531 2.18294922 8.28289062 2.05339844 7.26953125 1.91992188 C4.84753694 1.60247602 2.42466201 1.29625585 0 1 C0 0.67 0 0.34 0 0 Z " fill="#9E2B71" transform="translate(288,95)"/>
<path d="M0 0 C2.31 0 4.62 0 7 0 C7 0.66 7 1.32 7 2 C9.31 2.33 11.62 2.66 14 3 C14.33 3.99 14.66 4.98 15 6 C16.8653245 7.01754868 16.8653245 7.01754868 19.0625 7.6875 C19.79597656 7.93886719 20.52945312 8.19023437 21.28515625 8.44921875 C21.85105469 8.63097656 22.41695313 8.81273437 23 9 C23 9.66 23 10.32 23 11 C23.99 10.67 24.98 10.34 26 10 C25.67 10.99 25.34 11.98 25 13 C19.29676416 11.37317535 14.31986097 8.66802013 9.125 5.875 C8.24585938 5.40707031 7.36671875 4.93914062 6.4609375 4.45703125 C4.30505729 3.3087907 2.15153223 2.15636097 0 1 C0 0.67 0 0.34 0 0 Z " fill="#281938" transform="translate(282,281)"/>
<path d="M0 0 C3.68462985 3.52442856 4.19179334 5.64220248 4.3125 10.75 C4.27180917 17.53723103 2.74868258 20.25131742 -2 25 C-2.99 25 -3.98 25 -5 25 C-4.505 23.515 -4.505 23.515 -4 22 C-1.9375 21.3125 -1.9375 21.3125 0 21 C-0.33 19.68 -0.66 18.36 -1 17 C-0.34 16.67 0.32 16.34 1 16 C1.02712153 14.083412 1.04645097 12.1667127 1.0625 10.25 C1.07410156 9.18265625 1.08570313 8.1153125 1.09765625 7.015625 C1.01510087 4.46631499 0.74617558 2.42066409 0 0 Z " fill="#27C9DC" transform="translate(259,175)"/>
<path d="M0 0 C1.98 0 3.96 0 6 0 C5.690625 0.680625 5.38125 1.36125 5.0625 2.0625 C3.86400641 5.37598227 3.48906483 8.51541308 3 12 C2.37743972 14.01416562 1.72433347 16.02015519 1 18 C0.01 17.67 -0.98 17.34 -2 17 C-1.67 16.34 -1.34 15.68 -1 15 C-0.76827173 12.45384991 -0.58105471 9.92603775 -0.4375 7.375 C-0.39431641 6.66859375 -0.35113281 5.9621875 -0.30664062 5.234375 C-0.20055249 3.48981463 -0.09977111 1.74493303 0 0 Z " fill="#58346B" transform="translate(322,177)"/>
<path d="M0 0 C3.05561782 1.05366132 3.98224736 1.97210299 5.75 4.75 C7.04143139 8.10772162 7.25425628 10.44041206 7 14 C7.66 14.33 8.32 14.66 9 15 C8.01 15.33 7.02 15.66 6 16 C5.67 13.36 5.34 10.72 5 8 C3.35 8.33 1.7 8.66 0 9 C-1 6 -1 6 0 3 C0 2.01 0 1.02 0 0 Z " fill="#802255" transform="translate(357,128)"/>
<path d="M0 0 C0.66 0.33 1.32 0.66 2 1 C1.67 2.32 1.34 3.64 1 5 C1.66 5.33 2.32 5.66 3 6 C1.68 6 0.36 6 -1 6 C-3.20067421 6.93283296 -3.20067421 6.93283296 -5 8 C-5 6.68 -5 5.36 -5 4 C-2.5 1.75 -2.5 1.75 0 0 Z M-6 8 C-4.39968656 11.20062687 -5.96826309 13.72271806 -7 17 C-8.32 17 -9.64 17 -11 17 C-11 16.34 -11 15.68 -11 15 C-10.34 15 -9.68 15 -9 15 C-9 13.68 -9 12.36 -9 11 C-8.34 11 -7.68 11 -7 11 C-6.67 10.01 -6.34 9.02 -6 8 Z " fill="#1752BE" transform="translate(142,121)"/>
<path d="M0 0 C2.39602374 2.39602374 2.48831477 3.65161648 3.0625 6.9375 C4.16251099 13.15823954 4.16251099 13.15823954 8 18 C7.01 18.99 6.02 19.98 5 21 C-0.38924732 14.87585532 -0.27952878 7.71810025 0 0 Z " fill="#124B7E" transform="translate(119,198)"/>
<path d="M0 0 C2.53354248 1.26677124 2.69801435 2.25629673 3.8125 4.8125 C5.60881395 8.57332208 7.51866144 10.61803151 11 13 C11.66 13.66 12.32 14.32 13 15 C10.05309317 14.59070739 8.30364956 14.23923904 5.9375 12.375 C4.0834549 10.7264136 4.0834549 10.7264136 1.75 11.3125 C0.88375 11.6528125 0.88375 11.6528125 0 12 C0 9 0 9 1 7 C0.34 7 -0.32 7 -1 7 C-0.67 4.69 -0.34 2.38 0 0 Z " fill="#064B83" transform="translate(169,188)"/>
<path d="M0 0 C0.66 0.33 1.32 0.66 2 1 C1.67 1.66 1.34 2.32 1 3 C0.34 3 -0.32 3 -1 3 C-1.33 4.32 -1.66 5.64 -2 7 C-3.65 6.67 -5.3 6.34 -7 6 C-6.67 5.34 -6.34 4.68 -6 4 C-5.01 4 -4.02 4 -3 4 C-2.67 3.01 -2.34 2.02 -2 1 C-1.34 0.67 -0.68 0.34 0 0 Z M-9 6 C-8.34 6.33 -7.68 6.66 -7 7 C-8.32 7.99 -9.64 8.98 -11 10 C-10.34 8.68 -9.68 7.36 -9 6 Z M-14 10 C-13.01 10 -12.02 10 -11 10 C-11 11.32 -11 12.64 -11 14 C-12.65 13.67 -14.3 13.34 -16 13 C-15.34 12.01 -14.68 11.02 -14 10 Z " fill="#2D3FC5" transform="translate(163,105)"/>
<path d="M0 0 C0.89138672 0.12568359 0.89138672 0.12568359 1.80078125 0.25390625 C8.36023755 1.05981146 14.45052889 0.80934529 21 0 C18.53710748 2.69745371 16.68290288 3.83331248 12.94921875 4.203125 C7.82812829 4.30926159 4.48632128 3.7608131 0 1 C0 0.67 0 0.34 0 0 Z " fill="#36AEC2" transform="translate(295,199)"/>
<path d="M0 0 C0.33 0 0.66 0 1 0 C1.51332816 5.03061594 1.59992032 8.80513602 -1.375 13.0625 C-2.24125 14.031875 -3.1075 15.00125 -4 16 C-4.66 16 -5.32 16 -6 16 C-6.33 14.35 -6.66 12.7 -7 11 C-6.01 10.67 -5.02 10.34 -4 10 C-3.67 9.34 -3.34 8.68 -3 8 C-2.34 8 -1.68 8 -1 8 C-1.020625 6.865625 -1.04125 5.73125 -1.0625 4.5625 C-1 1 -1 1 0 0 Z " fill="#611F4F" transform="translate(363,223)"/>
<path d="M0 0 C0.99 0.33 1.98 0.66 3 1 C2.67 3.31 2.34 5.62 2 8 C-0.31 8 -2.62 8 -5 8 C-5 6.68 -5 5.36 -5 4 C-4.01 3.67 -3.02 3.34 -2 3 C-1.34 2.01 -0.68 1.02 0 0 Z " fill="#183C7A" transform="translate(204,198)"/>
<path d="M0 0 C0.33 0 0.66 0 1 0 C1.6249225 10.72783633 1.6249225 10.72783633 -0.75 15.5625 C-2.72398304 17.70098163 -4.55641088 19.42912128 -7 21 C-7 19.68 -7 18.36 -7 17 C-6.01 17 -5.02 17 -4 17 C-3.690625 16.030625 -3.38125 15.06125 -3.0625 14.0625 C-2 11 -2 11 -1 10 C-0.76712992 8.31816052 -0.58735834 6.6287584 -0.4375 4.9375 C-0.35371094 4.01839844 -0.26992187 3.09929687 -0.18359375 2.15234375 C-0.12300781 1.44207031 -0.06242188 0.73179687 0 0 Z " fill="#20CADE" transform="translate(203,180)"/>
<path d="M0 0 C2.71212397 2.36921174 3.92238997 4.67106739 5.25 8 C5.60578125 8.86625 5.9615625 9.7325 6.328125 10.625 C7 13 7 13 6 16 C6 15.34 6 14.68 6 14 C5.01 14 4.02 14 3 14 C0.88838269 4.58997722 0.88838269 4.58997722 0 0 Z " fill="#6A1B47" transform="translate(364,138)"/>
<path d="M0 0 C0.66 0.33 1.32 0.66 2 1 C2 2.65 2 4.3 2 6 C3.98 6 5.96 6 8 6 C7.6875 7.875 7.6875 7.875 7 10 C6.01 10.66 5.02 11.32 4 12 C2 9 0 6 -2 3 C-1.34 3 -0.68 3 0 3 C0 2.01 0 1.02 0 0 Z " fill="#283C78" transform="translate(258,168)"/>
<path d="M0 0 C0 0.33 0 0.66 0 1 C-0.68707031 1.10957031 -1.37414062 1.21914062 -2.08203125 1.33203125 C-2.98308594 1.49058594 -3.88414062 1.64914063 -4.8125 1.8125 C-5.70582031 1.96332031 -6.59914062 2.11414063 -7.51953125 2.26953125 C-10.23323736 3.06868565 -11.09310999 4.0056881 -13 6 C-13.99 6 -14.98 6 -16 6 C-16 6.66 -16 7.32 -16 8 C-16.66 8 -17.32 8 -18 8 C-16.79539911 4.25235277 -14.49089391 2.5889638 -11.0859375 0.75 C-7.43863872 -0.56138833 -3.81652532 -0.31155309 0 0 Z " fill="#2FD8ED" transform="translate(251,169)"/>
<path d="M0 0 C4.41889613 1.35021826 6.34345343 3.26115668 9 7 C5.98968256 7.93423645 5.13349732 8.04449911 2 7 C0.8125 3.4375 0.8125 3.4375 0 0 Z " fill="#832159" transform="translate(338,109)"/>
<path d="M0 0 C0.9075 0.78375 1.815 1.5675 2.75 2.375 C7.63922194 5.93354711 13.12177189 6.35329839 19 7 C19 7.33 19 7.66 19 8 C13.22099726 8.20557717 8.45511351 8.18204541 3 6 C2.34 6 1.68 6 1 6 C-0.0625 4.125 -0.0625 4.125 -1 2 C-0.67 1.34 -0.34 0.68 0 0 Z " fill="#083C69" transform="translate(232,196)"/>
<path d="M0 0 C0.625 1.8125 0.625 1.8125 1 4 C0.01 5.485 0.01 5.485 -1 7 C-1.66 7 -2.32 7 -3 7 C-3 8.32 -3 9.64 -3 11 C-4.65 11.66 -6.3 12.32 -8 13 C-6.40956621 7.91061189 -3.2553049 4.12543357 0 0 Z " fill="#17387F" transform="translate(136,125)"/>
<path d="M0 0 C2.75026417 -0.05404449 5.49946203 -0.09369306 8.25 -0.125 C9.02730469 -0.14175781 9.80460937 -0.15851563 10.60546875 -0.17578125 C17.72431144 -0.23662606 17.72431144 -0.23662606 21 2 C16.35930898 3.30891285 12.36772241 2.73588321 7.6875 2.0625 C6.94693359 1.96259766 6.20636719 1.86269531 5.44335938 1.75976562 C3.62790363 1.51380065 1.81379929 1.25789626 0 1 C0 0.67 0 0.34 0 0 Z " fill="#8C2C70" transform="translate(288,95)"/>
<path d="M0 0 C0.66 0.66 1.32 1.32 2 2 C1.01 3.485 1.01 3.485 0 5 C-0.45394552 7.27912938 -0.45394552 7.27912938 -0.625 9.6875 C-0.69976562 10.49574219 -0.77453125 11.30398437 -0.8515625 12.13671875 C-0.90054688 12.75160156 -0.94953125 13.36648437 -1 14 C-1.66 13.67 -2.32 13.34 -3 13 C-3.98807585 9.0476966 -4.40769379 6.85245066 -2.625 3.125 C-1 1 -1 1 0 0 Z " fill="#045F97" transform="translate(172,175)"/>
<path d="M0 0 C4.875 1.75 4.875 1.75 6 4 C6.99 4 7.98 4 9 4 C8.34 8.29 7.68 12.58 7 17 C6.67 17 6.34 17 6 17 C5.96132812 16.12988281 5.96132812 16.12988281 5.921875 15.2421875 C5.52154681 9.72857658 4.48768049 6.46859062 1 2 C0.67 1.34 0.34 0.68 0 0 Z " fill="#0B5489" transform="translate(198,172)"/>
<path d="M0 0 C1.305239 3.91571701 0.32239848 5.03892997 -1.4375 8.6875 C-1.91058594 9.68136719 -2.38367188 10.67523438 -2.87109375 11.69921875 C-3.42990234 12.83810547 -3.42990234 12.83810547 -4 14 C-4.33 14 -4.66 14 -5 14 C-5.383042 8.76509271 -4.3382052 5.58647943 -2 1 C-1.34 0.67 -0.68 0.34 0 0 Z " fill="#48163A" transform="translate(369,216)"/>
<path d="M0 0 C4.95839497 4.79844675 4.95839497 4.79844675 5.09765625 8.8203125 C5.08605469 9.91085938 5.07445312 11.00140625 5.0625 12.125 C5.05347656 13.22070312 5.04445313 14.31640625 5.03515625 15.4453125 C5.02355469 16.28835937 5.01195312 17.13140625 5 18 C4.67 18 4.34 18 4 18 C4 14.37 4 10.74 4 7 C3.01 7.33 2.02 7.66 1 8 C0.67 5.36 0.34 2.72 0 0 Z " fill="#50CBDE" transform="translate(317,174)"/>
<path d="M0 0 C0 0.66 0 1.32 0 2 C-2.60179663 3.30089831 -4.5969188 3.16840078 -7.5 3.1875 C-8.4796875 3.20167969 -9.459375 3.21585938 -10.46875 3.23046875 C-13 3 -13 3 -15 1 C-13.06263299 0.83179449 -11.12510094 0.66548905 -9.1875 0.5 C-7.56908203 0.36078125 -7.56908203 0.36078125 -5.91796875 0.21875 C-3 0 -3 0 0 0 Z " fill="#21C0D6" transform="translate(195,200)"/>
<path d="M0 0 C-0.125 1.75 -0.125 1.75 -1 4 C-6.11111111 8 -6.11111111 8 -10 8 C-8.90653119 6.65787938 -7.7998425 5.32652025 -6.6875 4 C-5.76517578 2.88625 -5.76517578 2.88625 -4.82421875 1.75 C-3 0 -3 0 0 0 Z " fill="#223C9A" transform="translate(147,116)"/>
<path d="M0 0 C3.3 0.33 6.6 0.66 10 1 C10 1.66 10 2.32 10 3 C10.66 3 11.32 3 12 3 C11.67 3.66 11.34 4.32 11 5 C6.71 4.34 2.42 3.68 -2 3 C-1.34 2.67 -0.68 2.34 0 2 C0 1.34 0 0.68 0 0 Z " fill="#065490" transform="translate(184,166)"/>
<path d="M0 0 C0.33 2.97 0.66 5.94 1 9 C-3 8 -3 8 -4.25 5.9375 C-4.62125 4.9784375 -4.62125 4.9784375 -5 4 C-1.125 0 -1.125 0 0 0 Z " fill="#5E2C68" transform="translate(320,166)"/>
<path d="M0 0 C0.66 0.33 1.32 0.66 2 1 C1.343621 5.48525648 0.29925791 9.66914029 -1 14 C-1.33 14 -1.66 14 -2 14 C-2.05437607 12.41705218 -2.09296271 10.83355744 -2.125 9.25 C-2.14820313 8.36828125 -2.17140625 7.4865625 -2.1953125 6.578125 C-1.99139502 3.8864142 -1.36551721 2.30095026 0 0 Z " fill="#26E4F0" transform="translate(232,177)"/>
<path d="M0 0 C1.65 0.33 3.3 0.66 5 1 C4.25 3.4375 4.25 3.4375 3 6 C0.875 6.8125 0.875 6.8125 -1 7 C-0.67 4.69 -0.34 2.38 0 0 Z " fill="#4B2F6E" transform="translate(290,169)"/>
<path d="M0 0 C7.02155172 5.4612069 7.02155172 5.4612069 9 10 C8.6875 12.3125 8.6875 12.3125 8 14 C8 13.01 8 12.02 8 11 C7.34 11 6.68 11 6 11 C5.62875 9.88625 5.62875 9.88625 5.25 8.75 C3.90634806 5.79396573 2.31013315 4.23312872 0 2 C0 1.34 0 0.68 0 0 Z " fill="#261426" transform="translate(378,45)"/>
<path d="M0 0 C1.98 0.495 1.98 0.495 4 1 C3.34 2.98 2.68 4.96 2 7 C1.34 7 0.68 7 0 7 C-0.33 7.66 -0.66 8.32 -1 9 C-0.67 6.03 -0.34 3.06 0 0 Z " fill="#0F60BB" transform="translate(122,153)"/>
<path d="M0 0 C-0.66 0 -1.32 0 -2 0 C-2 0.66 -2 1.32 -2 2 C-7.45769231 5.10096154 -7.45769231 5.10096154 -10.203125 4.58984375 C-10.79609375 4.39519531 -11.3890625 4.20054688 -12 4 C-10.56988027 3.13353333 -9.13059381 2.28218171 -7.6875 1.4375 C-6.48673828 0.72400391 -6.48673828 0.72400391 -5.26171875 -0.00390625 C-3 -1 -3 -1 0 0 Z " fill="#242A7A" transform="translate(171,101)"/>
<path d="M0 0 C2.64 0 5.28 0 8 0 C8 0.99 8 1.98 8 3 C6.25 3.75 6.25 3.75 4 4 C1.75 2.0625 1.75 2.0625 0 0 Z " fill="#074678" transform="translate(182,203)"/>
<path d="M0 0 C7.48765844 -0.3682455 7.48765844 -0.3682455 10 1.4375 C11 3 11 3 11 4 C6.94393835 3.53199289 3.53411321 3.12046792 0 1 C0 0.67 0 0.34 0 0 Z " fill="#17C3CE" transform="translate(293,197)"/>
<path d="M0 0 C0.625 1.8125 0.625 1.8125 1 4 C0.01 5.485 0.01 5.485 -1 7 C-1.99 7 -2.98 7 -4 7 C-3.67 5.02 -3.34 3.04 -3 1 C-2.01 0.67 -1.02 0.34 0 0 Z " fill="#1458A4" transform="translate(126,146)"/>
<path d="M0 0 C1.9375 0.6875 1.9375 0.6875 4 2 C4.75 4.625 4.75 4.625 5 7 C3.02 7.99 3.02 7.99 1 9 C0.67 8.01 0.34 7.02 0 6 C0.66 5.34 1.32 4.68 2 4 C1.34 2.68 0.68 1.36 0 0 Z " fill="#3F1D3C" transform="translate(379,49)"/>
<path d="M0 0 C0.99 0.33 1.98 0.66 3 1 C3 1.66 3 2.32 3 3 C3.66 3.33 4.32 3.66 5 4 C5 5.98 5 7.96 5 10 C3 9 3 9 2.1484375 6.93359375 C1.89320312 6.10988281 1.63796875 5.28617188 1.375 4.4375 C1.11460938 3.61121094 0.85421875 2.78492188 0.5859375 1.93359375 C0.39257812 1.29550781 0.19921875 0.65742188 0 0 Z " fill="#133C63" transform="translate(123,218)"/>
<path d="M0 0 C0 0.99 0 1.98 0 3 C-3.33333333 6 -3.33333333 6 -6 6 C-6 4 -6 4 -5 3 C-5.33 2.34 -5.66 1.68 -6 1 C-4 0 -4 0 0 0 Z " fill="#1B3D7B" transform="translate(238,169)"/>
<path d="M0 0 C0.66 0.33 1.32 0.66 2 1 C1.67 2.32 1.34 3.64 1 5 C1.66 5.33 2.32 5.66 3 6 C1 6 -1 6 -3 6 C-2.42655063 3.13275314 -2.1385485 2.1385485 0 0 Z " fill="#1E4AC5" transform="translate(142,121)"/>
<path d="M0 0 C3.24208567 0.35049575 4.61527704 0.56221181 6.8125 3.0625 C7.204375 3.701875 7.59625 4.34125 8 5 C5.69 4.67 3.38 4.34 1 4 C0.67 2.68 0.34 1.36 0 0 Z " fill="#28DEEE" transform="translate(251,170)"/>
<path d="M0 0 C0 1.32 0 2.64 0 4 C-2.97 4 -5.94 4 -9 4 C-3 0 -3 0 0 0 Z " fill="#283B7E" transform="translate(251,164)"/>
<path d="M0 0 C1.5625 1.1875 1.5625 1.1875 3 3 C2.6875 5.6875 2.6875 5.6875 2 8 C1.01 8 0.02 8 -1 8 C-0.835 7.236875 -0.67 6.47375 -0.5 5.6875 C0.09145396 2.96403764 0.09145396 2.96403764 0 0 Z " fill="#A92570" transform="translate(357,128)"/>
<path d="M0 0 C2.35953094 2.35953094 2.49141413 3.77895617 3 7 C2.01 7.33 1.02 7.66 0 8 C-0.185625 7.071875 -0.185625 7.071875 -0.375 6.125 C-0.87197356 3.80879168 -0.87197356 3.80879168 -3 2 C-2.01 1.34 -1.02 0.68 0 0 Z " fill="#114174" transform="translate(229,189)"/>
<path d="M0 0 C0.66 0.33 1.32 0.66 2 1 C1.01 1.66 0.02 2.32 -1 3 C-0.67 2.01 -0.34 1.02 0 0 Z M-4 3 C-3.01 3 -2.02 3 -1 3 C-1 4.32 -1 5.64 -1 7 C-2.65 6.67 -4.3 6.34 -6 6 C-5.34 5.01 -4.68 4.02 -4 3 Z " fill="#2543CA" transform="translate(153,112)"/>
<path d="M0 0 C0.99 0.66 1.98 1.32 3 2 C1.125 7.75 1.125 7.75 0 10 C-0.66 9.67 -1.32 9.34 -2 9 C-1.34 6.03 -0.68 3.06 0 0 Z " fill="#0A437C" transform="translate(205,183)"/>
<path d="M0 0 C2 0.6875 2 0.6875 4 2.6875 C3.2575 2.666875 2.515 2.64625 1.75 2.625 C-0.70462279 2.68078688 -2.66109261 2.9944904 -5 3.6875 C-4.67 2.6975 -4.34 1.7075 -4 0.6875 C-2 -0.3125 -2 -0.3125 0 0 Z " fill="#383DB9" transform="translate(173,100.3125)"/>
<path d="M0 0 C0.33 0.99 0.66 1.98 1 3 C-0.3125 5.1875 -0.3125 5.1875 -2 7 C-2.66 7 -3.32 7 -4 7 C-4.33 6.01 -4.66 5.02 -5 4 C-3.35 2.68 -1.7 1.36 0 0 Z " fill="#28172A" transform="translate(376,86)"/>
<path d="M0 0 C1.65 1.65 3.3 3.3 5 5 C1.25 6.125 1.25 6.125 -1 5 C-0.67 3.35 -0.34 1.7 0 0 Z " fill="#293265" transform="translate(289,193)"/>
<path d="M0 0 C0.268125 0.639375 0.53625 1.27875 0.8125 1.9375 C1.88667752 4.33131686 1.88667752 4.33131686 5 5 C5.33 5.99 5.66 6.98 6 8 C4.125 7.6875 4.125 7.6875 2 7 C0 4 0 4 0 0 Z " fill="#15D4D9" transform="translate(291,190)"/>
<path d="M0 0 C1.32 0.33 2.64 0.66 4 1 C4 5 4 5 3 7 C1.5 5.75 1.5 5.75 0 4 C0 2.68 0 1.36 0 0 Z " fill="#AA2773" transform="translate(344,116)"/>
</svg>
